<svg width="200" height="200" xmlns="http://www.w3.org/2000/svg">
  <g fill="none" fill-rule="evenodd">
    <path d="M100 170c-38.66 0-70-31.34-70-70s31.34-70 70-70 70 31.34 70 70-31.34 70-70 70zm0-10c33.137 0 60-26.863 60-60s-26.863-60-60-60-60 26.863-60 60 26.863 60 60 60z" fill="#F0F0F0"/>
    <path d="M143 77.5c0-4.142-3.358-7.5-7.5-7.5-4.142 0-7.5 3.358-7.5 7.5h15zM72 77.5c0-4.142-3.358-7.5-7.5-7.5-4.142 0-7.5 3.358-7.5 7.5h15z" fill="#D1D5DB"/>
    <path d="M100 130c11.598 0 21-9.402 21-21h-42c0 11.598 9.402 21 21 21z" stroke="#D1D5DB" stroke-width="2" stroke-linecap="round"/>
    <path d="M83.5 101.5c-12.15-17.893-41.713-1.913-29.563 15.98M116.5 101.5c12.15-17.893 41.713-1.913 29.563 15.98" stroke="#D1D5DB" stroke-width="2"/>
    <rect fill="#E0E7FF" x="60" y="40" width="80" height="12" rx="2"/>
    <rect fill="#E0E7FF" x="60" y="60" width="80" height="8" rx="2"/>
    <rect fill="#EDE9FE" x="75" y="145" width="50" height="30" rx="2"/>
    <path d="M88 156.5h24M88 163.5h12" stroke="#8B5CF6" stroke-width="2" stroke-linecap="round"/>
  </g>
</svg> 